<svg xmlns="http://www.w3.org/2000/svg" viewBox="0 0 1600 1000" role="img" aria-labelledby="sankey_loss_ledger_title sankey_loss_ledger_desc">
<title id="sankey_loss_ledger_title">Sankey Loss Ledger — SHMH / ISC visual model</title>
<desc id="sankey_loss_ledger_desc">Где теряются дни и какие меры можно обсуждать без фальшивой суммы эффектов? Draft visual concept for expert review. Dependency and evidence map, not legal opinion.</desc>
<defs>
  <pattern id="grid-sankey_loss_ledger" width="48" height="48" patternUnits="userSpaceOnUse">
    <path d="M 48 0 L 0 0 0 48" fill="none" stroke="#172b55" stroke-opacity="0.045" stroke-width="1"/>
  </pattern>
  <linearGradient id="wash-sankey_loss_ledger" x1="0" y1="0" x2="1" y2="1">
    <stop offset="0" stop-color="#ffffff" stop-opacity="0.92"/>
    <stop offset="1" stop-color="#f3ead4" stop-opacity="0.65"/>
  </linearGradient>
</defs>
<rect width="1600" height="1000" fill="#f7f3ea"/>
<rect width="1600" height="1000" fill="url(#grid-sankey_loss_ledger)"/>
<rect x="34" y="28" width="1532" height="944" rx="34" fill="url(#wash-sankey_loss_ledger)" stroke="#d8deea"/>
<g id="header">
  <text x="70" y="76" fill="#172b55" font-size="13" font-family="Aptos, &#x27;Segoe UI Variable&#x27;, &#x27;Helvetica Neue&#x27;, system-ui, sans-serif" font-weight="900" text-anchor="start" letter-spacing="0.12em"><tspan x="70" dy="0">SHMH / ISC Navigator</tspan></text>
  <text x="70" y="128" fill="#172b55" font-size="39" font-family="Aptos, &#x27;Segoe UI Variable&#x27;, &#x27;Helvetica Neue&#x27;, system-ui, sans-serif" font-weight="900" text-anchor="start"><tspan x="70" dy="0">Sankey Loss Ledger</tspan></text>
  <text x="70" y="170" fill="#5f6675" font-size="18" font-family="Aptos, &#x27;Segoe UI Variable&#x27;, &#x27;Helvetica Neue&#x27;, system-ui, sans-serif" font-weight="600" text-anchor="start"><tspan x="70" dy="0">Где теряются дни и какие меры можно обсуждать без фальшивой суммы эффектов?</tspan></text>
  <rect x="1212" y="54" width="179.4" height="30" rx="15" fill="#172b55" stroke="rgba(23,43,85,0.15)" stroke-width="1" /><text x="1301.7" y="74" fill="#ffffff" font-size="11" font-family="Aptos, &#x27;Segoe UI Variable&#x27;, &#x27;Helvetica Neue&#x27;, system-ui, sans-serif" font-weight="800" text-anchor="middle" letter-spacing="0.06em"><tspan x="1301.7" dy="0">DRAFT / EXPERT REVIEW</tspan></text>
  <rect x="1212" y="92" width="149.8" height="30" rx="15" fill="#d97706" stroke="rgba(23,43,85,0.15)" stroke-width="1" /><text x="1286.9" y="112" fill="#ffffff" font-size="11" font-family="Aptos, &#x27;Segoe UI Variable&#x27;, &#x27;Helvetica Neue&#x27;, system-ui, sans-serif" font-weight="800" text-anchor="middle" letter-spacing="0.06em"><tspan x="1286.9" dy="0">NOT LEGAL OPINION</tspan></text>
  <text x="1505" y="76" fill="#d9b83a" font-size="33" font-family="&#x27;JetBrains Mono&#x27;, &#x27;SFMono-Regular&#x27;, Consolas, monospace" font-weight="900" text-anchor="end"><tspan x="1505" dy="0">#03</tspan></text>
</g>
<rect x="80" y="220" width="1440" height="620" rx="24" fill="#ffffff" stroke="#d8deea" stroke-width="1" /><text x="150" y="265" fill="#5f6675" font-size="15" font-family="Aptos, &#x27;Segoe UI Variable&#x27;, &#x27;Helvetica Neue&#x27;, system-ui, sans-serif" font-weight="900" text-anchor="start" letter-spacing="0.08em"><tspan x="150" dy="0">Lifecycle stages</tspan></text><text x="640" y="265" fill="#5f6675" font-size="15" font-family="Aptos, &#x27;Segoe UI Variable&#x27;, &#x27;Helvetica Neue&#x27;, system-ui, sans-serif" font-weight="900" text-anchor="start" letter-spacing="0.08em"><tspan x="640" dy="0">Friction hypotheses</tspan></text><text x="1120" y="265" fill="#5f6675" font-size="15" font-family="Aptos, &#x27;Segoe UI Variable&#x27;, &#x27;Helvetica Neue&#x27;, system-ui, sans-serif" font-weight="900" text-anchor="start" letter-spacing="0.08em"><tspan x="1120" dy="0">Action levers</tspan></text><rect x="150" y="310" width="210" height="70" rx="12" fill="#f4f7fb" stroke="#d8deea" stroke-width="1" /><text x="174" y="351.0" fill="#172b55" font-size="19" font-family="Aptos, &#x27;Segoe UI Variable&#x27;, &#x27;Helvetica Neue&#x27;, system-ui, sans-serif" font-weight="850" text-anchor="start"><tspan x="174" dy="0">Земля</tspan></text><rect x="150" y="410" width="210" height="48" rx="12" fill="#f4f7fb" stroke="#d8deea" stroke-width="1" /><text x="174" y="440.0" fill="#172b55" font-size="19" font-family="Aptos, &#x27;Segoe UI Variable&#x27;, &#x27;Helvetica Neue&#x27;, system-ui, sans-serif" font-weight="850" text-anchor="start"><tspan x="174" dy="0">ИРД</tspan></text><rect x="150" y="510" width="210" height="88" rx="12" fill="#f4f7fb" stroke="#d8deea" stroke-width="1" /><text x="174" y="560.0" fill="#172b55" font-size="19" font-family="Aptos, &#x27;Segoe UI Variable&#x27;, &#x27;Helvetica Neue&#x27;, system-ui, sans-serif" font-weight="850" text-anchor="start"><tspan x="174" dy="0">ПИР</tspan></text><rect x="150" y="635" width="210" height="118" rx="12" fill="#f4f7fb" stroke="#d8deea" stroke-width="1" /><text x="174" y="700.0" fill="#172b55" font-size="19" font-family="Aptos, &#x27;Segoe UI Variable&#x27;, &#x27;Helvetica Neue&#x27;, system-ui, sans-serif" font-weight="850" text-anchor="start"><tspan x="174" dy="0">Стройка</tspan></text><rect x="150" y="770" width="210" height="36" rx="12" fill="#f4f7fb" stroke="#d8deea" stroke-width="1" /><text x="174" y="794.0" fill="#172b55" font-size="19" font-family="Aptos, &#x27;Segoe UI Variable&#x27;, &#x27;Helvetica Neue&#x27;, system-ui, sans-serif" font-weight="850" text-anchor="start"><tspan x="174" dy="0">Ввод</tspan></text><rect x="630" y="335" width="260" height="70" rx="12" fill="#fffdf8" stroke="#d97706" stroke-width="2" /><text x="660" y="376.0" fill="#111827" font-size="18" font-family="Aptos, &#x27;Segoe UI Variable&#x27;, &#x27;Helvetica Neue&#x27;, system-ui, sans-serif" font-weight="800" text-anchor="start"><tspan x="660" dy="0">source gaps</tspan></text><rect x="630" y="470" width="260" height="110" rx="12" fill="#fffdf8" stroke="#b42318" stroke-width="2" /><text x="660" y="531.0" fill="#111827" font-size="18" font-family="Aptos, &#x27;Segoe UI Variable&#x27;, &#x27;Helvetica Neue&#x27;, system-ui, sans-serif" font-weight="800" text-anchor="start"><tspan x="660" dy="0">coordination loops</tspan></text><rect x="630" y="620" width="260" height="78" rx="12" fill="#fffdf8" stroke="#2563eb" stroke-width="2" /><text x="660" y="665.0" fill="#111827" font-size="18" font-family="Aptos, &#x27;Segoe UI Variable&#x27;, &#x27;Helvetica Neue&#x27;, system-ui, sans-serif" font-weight="800" text-anchor="start"><tspan x="660" dy="0">edition uncertainty</tspan></text><rect x="630" y="760" width="260" height="56" rx="12" fill="#fffdf8" stroke="#6e7480" stroke-width="2" /><text x="660" y="794.0" fill="#111827" font-size="18" font-family="Aptos, &#x27;Segoe UI Variable&#x27;, &#x27;Helvetica Neue&#x27;, system-ui, sans-serif" font-weight="800" text-anchor="start"><tspan x="660" dy="0">handoff loss</tspan></text><rect x="1110" y="317" width="250" height="66" rx="12" fill="#f8fafc" stroke="#2563eb" stroke-width="2" /><text x="1140" y="356" fill="#172b55" font-size="18" font-family="Aptos, &#x27;Segoe UI Variable&#x27;, &#x27;Helvetica Neue&#x27;, system-ui, sans-serif" font-weight="850" text-anchor="start"><tspan x="1140" dy="0">legal validation</tspan></text><rect x="1110" y="467" width="250" height="66" rx="12" fill="#f8fafc" stroke="#2f7d44" stroke-width="2" /><text x="1140" y="506" fill="#172b55" font-size="18" font-family="Aptos, &#x27;Segoe UI Variable&#x27;, &#x27;Helvetica Neue&#x27;, system-ui, sans-serif" font-weight="850" text-anchor="start"><tspan x="1140" dy="0">data contract</tspan></text><rect x="1110" y="617" width="250" height="66" rx="12" fill="#f8fafc" stroke="#d97706" stroke-width="2" /><text x="1140" y="656" fill="#172b55" font-size="18" font-family="Aptos, &#x27;Segoe UI Variable&#x27;, &#x27;Helvetica Neue&#x27;, system-ui, sans-serif" font-weight="850" text-anchor="start"><tspan x="1140" dy="0">gate redesign</tspan></text><rect x="1110" y="747" width="250" height="66" rx="12" fill="#f8fafc" stroke="#172b55" stroke-width="2" /><text x="1140" y="786" fill="#172b55" font-size="18" font-family="Aptos, &#x27;Segoe UI Variable&#x27;, &#x27;Helvetica Neue&#x27;, system-ui, sans-serif" font-weight="850" text-anchor="start"><tspan x="1140" dy="0">pilot backlog</tspan></text><path d="M 360 345 C 510 345, 480 370, 630 370" fill="none" stroke="#d97706" stroke-width="36" opacity="0.32" stroke-linecap="round" stroke-linejoin="round"/><path d="M 360 345 C 510 345, 480 370, 630 370" fill="none" stroke="#d97706" stroke-width="2" opacity="0.88" stroke-linecap="round" stroke-linejoin="round"/><path d="M 360 445 C 510 445, 480 500, 630 500" fill="none" stroke="#b42318" stroke-width="42" opacity="0.32" stroke-linecap="round" stroke-linejoin="round"/><path d="M 360 445 C 510 445, 480 500, 630 500" fill="none" stroke="#b42318" stroke-width="2" opacity="0.88" stroke-linecap="round" stroke-linejoin="round"/><path d="M 360 554 C 510 554, 480 645, 630 645" fill="none" stroke="#2563eb" stroke-width="30" opacity="0.32" stroke-linecap="round" stroke-linejoin="round"/><path d="M 360 554 C 510 554, 480 645, 630 645" fill="none" stroke="#2563eb" stroke-width="2" opacity="0.88" stroke-linecap="round" stroke-linejoin="round"/><path d="M 360 695 C 510 695, 480 788, 630 788" fill="none" stroke="#6e7480" stroke-width="22" opacity="0.32" stroke-linecap="round" stroke-linejoin="round"/><path d="M 360 695 C 510 695, 480 788, 630 788" fill="none" stroke="#6e7480" stroke-width="2" opacity="0.88" stroke-linecap="round" stroke-linejoin="round"/><path d="M 890 370 C 1040 370, 960 350, 1110 350" fill="none" stroke="#2563eb" stroke-width="28" opacity="0.32" stroke-linecap="round" stroke-linejoin="round"/><path d="M 890 370 C 1040 370, 960 350, 1110 350" fill="none" stroke="#2563eb" stroke-width="2" opacity="0.88" stroke-linecap="round" stroke-linejoin="round"/><path d="M 890 510 C 1040 510, 960 500, 1110 500" fill="none" stroke="#2f7d44" stroke-width="48" opacity="0.32" stroke-linecap="round" stroke-linejoin="round"/><path d="M 890 510 C 1040 510, 960 500, 1110 500" fill="none" stroke="#2f7d44" stroke-width="2" opacity="0.88" stroke-linecap="round" stroke-linejoin="round"/><path d="M 890 650 C 1040 650, 960 650, 1110 650" fill="none" stroke="#d97706" stroke-width="34" opacity="0.32" stroke-linecap="round" stroke-linejoin="round"/><path d="M 890 650 C 1040 650, 960 650, 1110 650" fill="none" stroke="#d97706" stroke-width="2" opacity="0.88" stroke-linecap="round" stroke-linejoin="round"/><path d="M 890 788 C 1040 788, 960 780, 1110 780" fill="none" stroke="#172b55" stroke-width="24" opacity="0.32" stroke-linecap="round" stroke-linejoin="round"/><path d="M 890 788 C 1040 788, 960 780, 1110 780" fill="none" stroke="#172b55" stroke-width="2" opacity="0.88" stroke-linecap="round" stroke-linejoin="round"/><rect x="104" y="858" width="1390" height="48" rx="14" fill="#fff8e6" stroke="#e6c568" stroke-width="1" /><text x="128" y="888" fill="#111827" font-size="17" font-family="Aptos, &#x27;Segoe UI Variable&#x27;, &#x27;Helvetica Neue&#x27;, system-ui, sans-serif" font-weight="750" text-anchor="start"><tspan x="128" dy="0">Caveat: ширина потоков здесь задает гипотезы потерь / friction, а не доказанные суммы дней. Factual, normative и scenario basis должны храниться раздельно.</tspan></text>
<g id="footer">
  <line x1="70" y1="928" x2="1530" y2="928" stroke="#c9d1df" stroke-width="1" stroke-linecap="round"/>
  <text x="70" y="953" fill="#5f6675" font-size="12" font-family="Aptos, &#x27;Segoe UI Variable&#x27;, &#x27;Helvetica Neue&#x27;, system-ui, sans-serif" font-weight="700" text-anchor="start"><tspan x="70" dy="0">Основа: 23 шага ИСК · 53 НПА · 109 step-act links · Step / Act / Document / Authority / Risk / Deadline / Source</tspan></text>
  <text x="1530" y="953" fill="#5f6675" font-size="12" font-family="Aptos, &#x27;Segoe UI Variable&#x27;, &#x27;Helvetica Neue&#x27;, system-ui, sans-serif" font-weight="700" text-anchor="end"><tspan x="1530" dy="0">dependency/evidence map, not legal opinion · 2026-05-21</tspan></text>
</g>
</svg>
